<svg xmlns="http://www.w3.org/2000/svg" viewBox="0 0 1600 500">
  <title>METRA clean geometric vector wordmark</title>
  <desc>Professional vector wordmark: white METRA letters with a custom red three-bar E.</desc>
  
  <g fill="#F2F4F7" fill-rule="nonzero">
    <path d="M 342.296 315.000 H 366.891 V 223.809 C 366.891 212.466 366.441 196.519 366.104 181.357 C 372.169 198.652 377.784 214.600 381.266 223.809 L 416.866 315.000 H 437.306 L 472.569 223.809 C 476.163 214.263 481.891 197.192 488.067 178.999 C 487.730 194.834 487.281 211.904 487.281 223.809 V 315.000 H 511.764 V 147.666 H 476.500 L 439.552 245.708 C 436.632 254.243 431.129 270.078 427.311 281.646 C 423.492 270.078 417.989 254.243 414.957 245.708 L 377.447 147.666 H 342.296 Z"/>
    <path d="M 758.428 169.565 H 811.772 V 315.000 H 836.816 V 169.565 H 889.937 V 147.666 H 758.428 Z"/>
    <path d="M 948.601 315.000 H 973.532 V 251.660 H 1010.593 C 1010.930 251.660 1011.379 251.660 1011.716 251.660 L 1045.070 315.000 H 1073.146 L 1036.984 247.505 C 1057.873 239.980 1070.563 223.135 1070.563 199.775 C 1070.563 167.769 1048.103 147.666 1012.277 147.666 H 948.601 Z M 973.532 230.435 V 169.229 H 1011.154 C 1032.717 169.229 1045.969 180.908 1045.969 199.775 C 1045.969 218.643 1032.829 230.435 1011.267 230.435 Z"/>
    <path d="M 1119.906 315.000 H 1146.410 L 1161.684 271.538 H 1229.179 L 1244.003 315.000 H 1271.068 L 1210.761 147.666 H 1180.663 Z M 1169.208 250.312 1179.652 220.664 C 1184.257 206.851 1189.086 192.139 1195.824 170.464 C 1202.450 192.139 1207.167 206.851 1211.771 220.664 L 1221.879 250.312 Z"/>
  </g>
  <g fill="#E50914" fill-rule="evenodd">
    <path d="M 589.0 141.0 L 715.0 141.0 L 691.0 171.0 L 565.0 171.0 Z M 589.0 199.0 L 715.0 199.0 L 691.0 229.0 L 565.0 229.0 Z M 589.0 257.0 L 715.0 257.0 L 691.0 287.0 L 565.0 287.0 Z"/>
  </g>
</svg>